<?xml version="1.0" encoding="UTF-8"?>
<svg id="Layer_1" xmlns="http://www.w3.org/2000/svg" version="1.1" viewBox="0 0 292.3 132.2">
  <!-- Generator: Adobe Illustrator 29.5.1, SVG Export Plug-In . SVG Version: 2.1.0 Build 141)  -->
  <defs>
    <style>
      .st0 {
        fill: #231f20;
      }

      .st1 {
        opacity: .4;
      }
    </style>
  </defs>
  <g>
    <path class="st0" d="M29.6,79.7v21.4h-4.7v-21.4h4.7Z"/>
    <path class="st0" d="M37.7,85.6v2.2h0c.5-.9,1.2-1.6,2.1-2,.9-.4,1.7-.6,2.6-.6s2.1.2,2.8.5c.7.3,1.3.7,1.7,1.3s.7,1.2.9,2c.2.8.3,1.7.3,2.6v9.5h-4.2v-8.7c0-1.3-.2-2.2-.6-2.9-.4-.6-1.1-.9-2.1-.9s-2,.3-2.5,1c-.5.7-.8,1.8-.8,3.4v8.1h-4.2v-15.5h4Z"/>
    <path class="st0" d="M55.9,85.6v2.2h0c.5-.9,1.2-1.6,2.1-2,.9-.4,1.7-.6,2.6-.6s2.1.2,2.8.5c.7.3,1.3.7,1.7,1.3s.7,1.2.9,2c.2.8.3,1.7.3,2.6v9.5h-4.2v-8.7c0-1.3-.2-2.2-.6-2.9-.4-.6-1.1-.9-2.1-.9s-2,.3-2.5,1c-.5.7-.8,1.8-.8,3.4v8.1h-4.2v-15.5h4Z"/>
    <path class="st0" d="M69.9,89.9c.4-1,.9-1.9,1.6-2.6s1.5-1.3,2.5-1.6c1-.4,2.1-.6,3.3-.6s2.3.2,3.3.6c1,.4,1.8.9,2.5,1.6.7.7,1.2,1.6,1.6,2.6.4,1,.6,2.1.6,3.4s-.2,2.4-.6,3.4c-.4,1-.9,1.8-1.6,2.6-.7.7-1.5,1.3-2.5,1.6-1,.4-2.1.6-3.3.6s-2.3-.2-3.3-.6c-1-.4-1.8-.9-2.5-1.6-.7-.7-1.2-1.6-1.6-2.6-.4-1-.6-2.1-.6-3.4s.2-2.4.6-3.4ZM73.8,95.1c.1.6.3,1.1.6,1.6s.7.8,1.2,1.1c.5.3,1.1.4,1.8.4s1.3-.1,1.8-.4c.5-.3.9-.7,1.2-1.1.3-.5.5-1,.6-1.6.1-.6.2-1.2.2-1.8s0-1.2-.2-1.8-.3-1.1-.6-1.6c-.3-.5-.7-.8-1.2-1.1-.5-.3-1.1-.4-1.8-.4s-1.3.1-1.8.4c-.5.3-.9.7-1.2,1.1s-.5,1-.6,1.6-.2,1.2-.2,1.8,0,1.2.2,1.8Z"/>
    <path class="st0" d="M91.7,101l-5.3-15.5h4.5l3.3,10.6h0l3.3-10.6h4.2l-5.2,15.5h-4.7Z"/>
    <path class="st0" d="M103.1,90.3c0-1,.3-1.8.7-2.5s1-1.2,1.7-1.6c.7-.4,1.4-.7,2.3-.9.8-.2,1.7-.3,2.6-.3s1.6,0,2.4.2,1.5.3,2.2.6,1.2.8,1.6,1.3.6,1.3.6,2.3v8c0,.7,0,1.4.1,2,0,.6.2,1.1.4,1.4h-4.3c0-.2-.1-.5-.2-.7,0-.2,0-.5-.1-.8-.7.7-1.5,1.2-2.4,1.5-.9.3-1.9.4-2.8.4s-1.4,0-2.1-.3c-.6-.2-1.2-.5-1.7-.8-.5-.4-.9-.9-1.1-1.4-.3-.6-.4-1.3-.4-2.1s.2-1.6.5-2.2c.3-.6.7-1,1.2-1.4.5-.3,1-.6,1.7-.8.6-.2,1.3-.3,1.9-.4.6,0,1.3-.2,1.9-.2.6,0,1.2-.1,1.6-.3.5-.1.9-.3,1.1-.5.3-.2.4-.6.4-1,0-.5,0-.8-.2-1.1-.1-.3-.3-.5-.6-.6-.2-.1-.5-.2-.9-.3s-.7,0-1.1,0c-.8,0-1.5.2-2,.5-.5.4-.8,1-.8,1.8h-4.2ZM112.9,93.5c-.2.2-.4.3-.7.4-.3,0-.6.2-.9.2-.3,0-.6.1-1,.1-.3,0-.7,0-1,.1-.3,0-.6.1-.9.2-.3.1-.6.2-.8.4-.2.2-.4.4-.6.6-.1.3-.2.6-.2,1s0,.7.2,1c.1.3.3.5.6.6.2.1.5.3.8.3.3,0,.6,0,1,0,.8,0,1.5-.1,1.9-.4.5-.3.8-.6,1-1,.2-.4.4-.8.4-1.2,0-.4,0-.7,0-1v-1.6Z"/>
    <path class="st0" d="M129.3,85.6v2.8h-3.1v7.7c0,.7.1,1.2.4,1.4.2.2.7.4,1.4.4s.5,0,.7,0c.2,0,.4,0,.6,0v3.3c-.4,0-.8,0-1.2.1-.4,0-.9,0-1.3,0-.7,0-1.3,0-1.9-.1s-1.1-.3-1.6-.5c-.4-.3-.8-.6-1.1-1.1-.3-.5-.4-1.1-.4-1.9v-9.1h-2.6v-2.8h2.6v-4.6h4.2v4.6h3.1Z"/>
    <path class="st0" d="M132.1,83.2v-3.5h4.2v3.5h-4.2ZM136.3,85.6v15.5h-4.2v-15.5h4.2Z"/>
    <path class="st0" d="M140,89.9c.4-1,.9-1.9,1.6-2.6s1.5-1.3,2.5-1.6c1-.4,2.1-.6,3.3-.6s2.3.2,3.3.6c1,.4,1.8.9,2.5,1.6.7.7,1.2,1.6,1.6,2.6.4,1,.6,2.1.6,3.4s-.2,2.4-.6,3.4c-.4,1-.9,1.8-1.6,2.6-.7.7-1.5,1.3-2.5,1.6-1,.4-2.1.6-3.3.6s-2.3-.2-3.3-.6c-1-.4-1.8-.9-2.5-1.6-.7-.7-1.2-1.6-1.6-2.6-.4-1-.6-2.1-.6-3.4s.2-2.4.6-3.4ZM143.9,95.1c.1.6.3,1.1.6,1.6s.7.8,1.2,1.1c.5.3,1.1.4,1.8.4s1.3-.1,1.8-.4c.5-.3.9-.7,1.2-1.1.3-.5.5-1,.6-1.6.1-.6.2-1.2.2-1.8s0-1.2-.2-1.8c-.1-.6-.3-1.1-.6-1.6-.3-.5-.7-.8-1.2-1.1-.5-.3-1.1-.4-1.8-.4s-1.3.1-1.8.4c-.5.3-.9.7-1.2,1.1s-.5,1-.6,1.6-.2,1.2-.2,1.8,0,1.2.2,1.8Z"/>
    <path class="st0" d="M162.6,85.6v2.2h0c.5-.9,1.2-1.6,2.1-2,.9-.4,1.7-.6,2.6-.6s2.1.2,2.8.5c.7.3,1.3.7,1.7,1.3s.7,1.2.9,2c.2.8.3,1.7.3,2.6v9.5h-4.2v-8.7c0-1.3-.2-2.2-.6-2.9-.4-.6-1.1-.9-2.1-.9s-2,.3-2.5,1-.8,1.8-.8,3.4v8.1h-4.2v-15.5h4Z"/>
    <path class="st0" d="M180.2,97.2c.2.3.4.6.7.8.3.2.6.4,1,.5.4,0,.8.1,1.2.1s.6,0,.9-.1c.3,0,.6-.2.9-.3s.5-.3.7-.6c.2-.2.3-.6.3-.9,0-.6-.4-1.1-1.3-1.4-.8-.3-2-.6-3.5-1-.6-.1-1.2-.3-1.8-.5-.6-.2-1.1-.4-1.6-.7-.5-.3-.8-.7-1.1-1.2-.3-.5-.4-1-.4-1.7,0-1,.2-1.8.6-2.5.4-.6.9-1.1,1.5-1.5.6-.4,1.4-.6,2.2-.8.8-.1,1.6-.2,2.5-.2s1.7,0,2.4.2c.8.2,1.5.4,2.1.8s1.1.9,1.5,1.5.7,1.4.7,2.4h-4c0-.8-.4-1.4-.9-1.7-.6-.3-1.2-.4-2-.4s-.5,0-.8,0-.5,0-.8.2c-.2.1-.4.2-.6.4-.2.2-.2.4-.2.8s.1.7.4.9c.3.2.6.4,1.1.6.4.1,1,.3,1.5.4.6.1,1.2.2,1.8.4.6.1,1.2.3,1.8.5.6.2,1.1.5,1.6.8s.8.7,1.1,1.2c.3.5.4,1.1.4,1.8,0,1-.2,1.9-.6,2.6-.4.7-.9,1.2-1.6,1.7s-1.4.7-2.3.9-1.7.3-2.6.3-1.8,0-2.6-.3c-.9-.2-1.6-.5-2.3-.9-.7-.4-1.2-1-1.6-1.7-.4-.7-.7-1.6-.7-2.6h4c0,.5,0,.9.3,1.2Z"/>
  </g>
  <g>
    <path class="st0" d="M211.7,30.8v8h0c.5-.9,1.2-1.6,2.1-2,.8-.4,1.7-.6,2.5-.6,1.1,0,2.1.2,2.8.5.7.3,1.3.7,1.7,1.3.4.5.7,1.2.9,2,.2.8.3,1.7.3,2.6v9.5h-4.2v-8.7c0-1.3-.2-2.2-.6-2.9s-1.1-.9-2.1-.9-2,.3-2.5,1-.8,1.8-.8,3.4v8.1h-4.2v-21.4h4.2Z"/>
    <g>
      <polygon class="st0" points="235.4 34.3 239 34.3 239 30.8 235.8 30.8 234.2 30.8 227 30.8 227 34.3 234.2 34.3 235.4 34.3"/>
      <path class="st0" d="M240.4,41.1c-.4-1-.9-1.9-1.6-2.6s-1.5-1.3-2.5-1.6c-1-.4-2.1-.6-3.3-.6s-2.3.2-3.3.6c-1,.4-1.8.9-2.5,1.6s-1.2,1.6-1.6,2.6-.6,2.1-.6,3.4.2,2.4.6,3.4c.4,1,.9,1.9,1.6,2.6s1.5,1.3,2.5,1.6c1,.4,2.1.6,3.3.6s2.3-.2,3.3-.6c1-.4,1.8-.9,2.5-1.6s1.2-1.6,1.6-2.6c.4-1,.6-2.1.6-3.4s-.2-2.4-.6-3.4ZM236.6,46.3c-.1.6-.3,1.1-.6,1.6-.3.5-.7.8-1.2,1.1-.5.3-1.1.4-1.8.4s-1.3-.1-1.8-.4c-.5-.3-.9-.7-1.2-1.1-.3-.5-.5-1-.6-1.6-.1-.6-.2-1.2-.2-1.8s0-1.2.2-1.8c.1-.6.3-1.1.6-1.6.3-.5.7-.8,1.2-1.1.5-.3,1.1-.4,1.8-.4s1.3.1,1.8.4c.5.3.9.7,1.2,1.1.3.5.5,1,.6,1.6.1.6.2,1.2.2,1.8s0,1.2-.2,1.8Z"/>
    </g>
    <path class="st0" d="M242.5,54.1c.4,0,.8,0,1.2-.3.3-.2.5-.5.5-1.1v-16h4.2v16.2c0,.8,0,1.5-.3,2.1s-.5,1.1-.9,1.5c-.4.4-1,.7-1.7.9-.7.2-1.6.3-2.7.3s-.9,0-1.3-.1v-3.5c.2,0,.5.1.9.1ZM244.2,34.3v-3.5h4.2v3.5h-4.2Z"/>
    <path class="st0" d="M263.3,50.2c-.5.8-1.2,1.4-2,1.8-.8.4-1.7.6-2.7.6s-2.2-.2-3.1-.7c-.9-.4-1.6-1.1-2.2-1.8-.6-.8-1-1.7-1.3-2.6-.3-1-.4-2-.4-3.1s.1-2,.4-3c.3-1,.7-1.8,1.3-2.6.6-.7,1.3-1.3,2.1-1.8s1.9-.7,3-.7,1.8.2,2.6.6c.8.4,1.5,1,2,1.7h0v-7.8h4.2v21.4h-4v-2h0ZM263.1,42.6c-.1-.6-.3-1.1-.6-1.6s-.7-.8-1.1-1.1c-.5-.3-1-.4-1.7-.4s-1.3.1-1.8.4c-.5.3-.9.6-1.2,1.1s-.5,1-.6,1.6-.2,1.2-.2,1.8,0,1.2.2,1.8c.1.6.4,1.1.7,1.6s.7.8,1.2,1.1c.5.3,1,.4,1.7.4s1.3-.1,1.8-.4c.5-.3.8-.7,1.1-1.1.3-.5.5-1,.6-1.6.1-.6.2-1.2.2-1.9s0-1.3-.2-1.8Z"/>
  </g>
  <rect class="st1" x="194.6" y="26.1" width="8" height="79.6"/>
</svg>