<?xml version="1.0" encoding="utf-8"?>
<svg version="1.1" id="logo" xmlns="http://www.w3.org/2000/svg" xmlns:xlink="http://www.w3.org/1999/xlink" x="0px" y="0px"
	 viewBox="0 0 703.9 650.2" style="enable-background:new 0 0 703.9 650.2;" xml:space="preserve">
<linearGradient id="drop1" gradientUnits="userSpaceOnUse" x1="264.88" y1="521.1961" x2="134.3294" y2="596.5695">
	<stop  offset="0" style="stop-color:#6668AB"/>
	<stop  offset="1.413400e-02" style="stop-color:#6668AB"/>
	<stop  offset="0.1" style="stop-color:#6668AB"/>
	<stop  offset="0.1209" style="stop-color:#656BAE"/>
	<stop  offset="0.27" style="stop-color:#5E83C0"/>
	<stop  offset="0.42" style="stop-color:#5599D0"/>
	<stop  offset="0.5687" style="stop-color:#4CA9DD"/>
	<stop  offset="0.7157" style="stop-color:#43B5E7"/>
	<stop  offset="0.8604" style="stop-color:#3CBCED"/>
	<stop  offset="1" style="stop-color:#3ABFEF"/>
</linearGradient>
<path id="drop1" style="fill:url(#drop1);" d="M276.3,541.3
	c5,10.1,7.9,21.5,7.9,33.5c0,26.7-13.9,50.1-34.8,63.5c-0.5,0.3-1,0.7-1.5,1c-12.2,7.4-26.8,11.5-42.3,10.8
	c-40.6-1.7-72.8-35.8-72.2-76.5c0.1-9,1.9-17.7,4.9-25.7c1.8-4.8,4.1-9.3,6.8-13.6c0.5-0.8,1-1.5,1.5-2.3
	c6.7-10,13.6-19.9,20.6-29.7v0c14.9-20.7,30.5-40.8,46.8-60.2l60.4,95.6C275.1,538.9,275.7,540.1,276.3,541.3z"/>
<linearGradient id="wing1" gradientUnits="userSpaceOnUse" x1="-58.2754" y1="58.2754" x2="386.8554" y2="503.4061">
	<stop  offset="0" style="stop-color:#68C5AC"/>
	<stop  offset="0.1" style="stop-color:#68C5AC"/>
	<stop  offset="0.1012" style="stop-color:#68C5AD"/>
	<stop  offset="0.2845" style="stop-color:#5CC2C4"/>
	<stop  offset="0.4679" style="stop-color:#51C1D5"/>
	<stop  offset="0.6492" style="stop-color:#46C0E2"/>
	<stop  offset="0.8277" style="stop-color:#3EBFEB"/>
	<stop  offset="1" style="stop-color:#3ABFEF"/>
</linearGradient>
<path id="wing1" style="fill:url(#wing1);" d="M284.2,574.9
	c0-12.1-2.8-23.4-7.9-33.5c-0.6-1.2-1.2-2.4-1.9-3.5l-60.4-95.6v0c0,0-55.2-86.2-58.7-91.2c-36.9-53.4-68.8-110.4-95.2-170.4
	C52.9,164,46,147.2,39.6,130.1c-9.6-25.3-18.2-51-25.8-77.2c0,0,0,0,0,0c-0.1-0.4-0.2-0.8-0.3-1.2c0-0.1-0.1-0.2-0.1-0.3
	C8.5,34.4,4,17.3,0,0c17.2,5.3,34.3,11,51.1,17.1c0,0,0,0,0.1,0c34.9,12.7,68.9,27.3,102,43.5c5.9,2.9,11.7,5.8,17.5,8.8
	c15.2,7.8,30.2,16,44.9,24.6c66.5,38.6,113.6,130.4,118.7,211.7c0,0,5.1,64.5,0.1,126.8c-5,62.3-20.3,106.6-22.3,112.2
	c-15.2,42.8-34.7,68.2-48.4,81.8C276.4,613.1,284.2,594.9,284.2,574.9z"/>
<linearGradient id="drop2" gradientUnits="userSpaceOnUse" x1="439.0205" y1="521.1961" x2="569.571" y2="596.5695">
	<stop  offset="0" style="stop-color:#6668AB"/>
	<stop  offset="1.413400e-02" style="stop-color:#6668AB"/>
	<stop  offset="0.1" style="stop-color:#6668AB"/>
	<stop  offset="0.1209" style="stop-color:#656BAE"/>
	<stop  offset="0.27" style="stop-color:#5E83C0"/>
	<stop  offset="0.42" style="stop-color:#5599D0"/>
	<stop  offset="0.5687" style="stop-color:#4CA9DD"/>
	<stop  offset="0.7157" style="stop-color:#43B5E7"/>
	<stop  offset="0.8604" style="stop-color:#3CBCED"/>
	<stop  offset="1" style="stop-color:#3ABFEF"/>
</linearGradient>
<path id="drop2" style="fill:url(#drop2);" d="M427.6,541.3
	c-5,10.1-7.9,21.5-7.9,33.5c0,26.7,13.9,50.1,34.8,63.5c0.5,0.3,1,0.7,1.5,1c12.2,7.4,26.8,11.5,42.3,10.8
	c40.6-1.7,72.8-35.8,72.2-76.5c-0.1-9-1.9-17.7-4.9-25.7c-1.8-4.8-4.1-9.3-6.8-13.6c-0.5-0.8-1-1.5-1.5-2.3
	c-6.7-10-13.6-19.9-20.6-29.7v0c-14.9-20.7-30.5-40.8-46.8-60.2l-60.4,95.6C428.8,538.9,428.2,540.1,427.6,541.3z"/>
<linearGradient id="wing2" gradientUnits="userSpaceOnUse" x1="668.7542" y1="-20.2914" x2="331.5153" y2="563.8235">
	<stop  offset="0" style="stop-color:#68C5AC"/>
	<stop  offset="0.1" style="stop-color:#68C5AC"/>
	<stop  offset="0.1012" style="stop-color:#68C5AD"/>
	<stop  offset="0.2845" style="stop-color:#5CC2C4"/>
	<stop  offset="0.4679" style="stop-color:#51C1D5"/>
	<stop  offset="0.6492" style="stop-color:#46C0E2"/>
	<stop  offset="0.8277" style="stop-color:#3EBFEB"/>
	<stop  offset="1" style="stop-color:#3ABFEF"/>
</linearGradient>
<path id="wing2" style="fill:url(#wing2);" d="M391.8,544.8
	c-2-5.6-17.3-49.9-22.3-112.2c-5-62.3,0.1-126.8,0.1-126.8c5.1-81.3,52.2-173.1,118.7-211.7c14.7-8.6,29.7-16.8,44.9-24.6
	c5.8-3,11.6-5.9,17.5-8.8c33-16.3,67-30.8,102-43.5c0,0,0,0,0.1,0C669.6,11,686.7,5.3,703.9,0c-4,17.3-8.5,34.4-13.4,51.4
	c0,0.1-0.1,0.2-0.1,0.3c-0.1,0.4-0.2,0.8-0.3,1.2c0,0,0,0,0,0c-7.6,26.2-16.2,51.9-25.8,77.2c-6.4,17-13.3,33.8-20.6,50.4
	c-26.4,60-58.4,117.1-95.2,170.4c-3.5,5.1-58.7,91.2-58.7,91.2v0l-60.4,95.6c-0.6,1.1-1.3,2.3-1.9,3.5c-5,10.1-7.9,21.5-7.9,33.5
	c0,20,7.8,38.2,20.5,51.7C426.5,613,407,587.7,391.8,544.8z"/>
</svg>
